<svg xmlns="http://www.w3.org/2000/svg" xmlns:xlink="http://www.w3.org/1999/xlink" version="1.1" width="1000" height="1000" viewBox="0 0 1000 1000" xml:space="preserve">
<desc>Created with Fabric.js 3.5.0</desc>
<defs>
</defs>
<rect x="0" y="0" width="100%" height="100%" fill="#ffffff"/>
<g transform="matrix(45.4187 0 0 45.4187 500.0003 500.0002)" id="662521">
<path style="stroke: rgb(255,0,0); stroke-width: 2; stroke-dasharray: none; stroke-linecap: round; stroke-dashoffset: 0; stroke-linejoin: round; stroke-miterlimit: 4; is-custom-font: none; font-file-url: none; fill: none; fill-rule: nonzero; opacity: 1;" vector-effect="non-scaling-stroke" transform=" translate(-12, -11.9959)" d="M 20.42 4.58 a 5.4 5.4 0 0 0 -7.65 0 l -0.77 0.78 l -0.77 -0.78 a 5.4 5.4 0 0 0 -7.65 0 C 1.46 6.7 1.33 10.28 4 13 l 8 8 l 8 -8 c 2.67 -2.72 2.54 -6.3 0.42 -8.42 z" stroke-linecap="round"/>
</g>
<g transform="matrix(42.7745 0 0 41.3019 501.1872 502.0766)" id="338505">
<path style="stroke: none; stroke-width: 1; stroke-dasharray: none; stroke-linecap: butt; stroke-dashoffset: 0; stroke-linejoin: miter; stroke-miterlimit: 4; is-custom-font: none; font-file-url: none; fill: rgb(192,57,43); fill-rule: nonzero; opacity: 1;" vector-effect="non-scaling-stroke" transform=" translate(-12, -1041.3875)" d="m 7 1031.4 c -1.5355 0 -3.0784 0.5 -4.25 1.7 c -2.3431 2.4 -2.2788 6.1 0 8.5 l 9.25 9.8 l 9.25 -9.8 c 2.279 -2.4 2.343 -6.1 0 -8.5 c -2.343 -2.3 -6.157 -2.3 -8.5 0 l -0.75 0.8 l -0.75 -0.8 c -1.172 -1.2 -2.7145 -1.7 -4.25 -1.7 z" stroke-linecap="round"/>
</g>
</svg>
