<?xml version="1.0" encoding="UTF-8"?>
<!DOCTYPE svg PUBLIC "-//W3C//DTD SVG 1.1//EN" "http://www.w3.org/Graphics/SVG/1.1/DTD/svg11.dtd">
<svg xmlns="http://www.w3.org/2000/svg" version="1.1" width="96px" height="96px" style="shape-rendering:geometricPrecision; text-rendering:geometricPrecision; image-rendering:optimizeQuality; fill-rule:evenodd; clip-rule:evenodd" xmlns:xlink="http://www.w3.org/1999/xlink">
<g><path style="opacity:0.999" fill="#29afea" d="M 89.5,21.5 C 86.784,21.3862 84.784,22.3862 83.5,24.5C 81.2625,23.4634 78.9291,23.2967 76.5,24C 75.6634,25.0113 75.33,26.1779 75.5,27.5C 56.3591,40.5633 49.3591,58.5633 54.5,81.5C 38.2558,81.8248 22.0891,81.4914 6,80.5C 5.33333,59.1667 5.33333,37.8333 6,16.5C 33.4279,15.3387 60.9279,15.172 88.5,16C 89.4061,17.6995 89.7394,19.5328 89.5,21.5 Z"/></g>
<g><path style="opacity:1" fill="#fbfdfe" d="M 12.5,23.5 C 19.1584,22.3445 21.1584,24.8445 18.5,31C 11.7496,32.4689 9.74962,29.9689 12.5,23.5 Z"/></g>
<g><path style="opacity:1" fill="#fcfdfe" d="M 83.5,24.5 C 83.6621,26.5273 83.4955,28.5273 83,30.5C 81.6439,31.3802 80.1439,31.7135 78.5,31.5C 76.0882,31.3059 75.0882,29.9726 75.5,27.5C 75.33,26.1779 75.6634,25.0113 76.5,24C 78.9291,23.2967 81.2625,23.4634 83.5,24.5 Z"/></g>
<g><path style="opacity:1" fill="#53a4ed" d="M 89.5,21.5 C 89.5,26.1667 89.5,30.8333 89.5,35.5C 86.911,35.461 84.911,36.461 83.5,38.5C 81.2625,37.4634 78.9291,37.2967 76.5,38C 75.7476,38.6708 75.4142,39.5041 75.5,40.5C 67.6099,47.9254 63.6099,57.2587 63.5,68.5C 64.0243,72.9038 64.691,77.2372 65.5,81.5C 64.1667,81.5 62.8333,81.5 61.5,81.5C 56.4285,61.0961 62.0952,44.4295 78.5,31.5C 80.1439,31.7135 81.6439,31.3802 83,30.5C 83.4955,28.5273 83.6621,26.5273 83.5,24.5C 84.784,22.3862 86.784,21.3862 89.5,21.5 Z"/></g>
<g><path style="opacity:1" fill="#fbfdfe" d="M 12.5,37.5 C 19.1584,36.3445 21.1584,38.8445 18.5,45C 11.7496,46.4689 9.74962,43.9689 12.5,37.5 Z"/></g>
<g><path style="opacity:1" fill="#fcfdfe" d="M 83.5,38.5 C 83.6621,40.5273 83.4955,42.5273 83,44.5C 81.6439,45.3802 80.1439,45.7135 78.5,45.5C 75.9162,44.9517 74.9162,43.285 75.5,40.5C 75.4142,39.5041 75.7476,38.6708 76.5,38C 78.9291,37.2967 81.2625,37.4634 83.5,38.5 Z"/></g>
<g><path style="opacity:1" fill="#6d9def" d="M 75.5,40.5 C 74.9162,43.285 75.9162,44.9517 78.5,45.5C 70.3811,56.3665 68.3811,68.3665 72.5,81.5C 70.1667,81.5 67.8333,81.5 65.5,81.5C 64.691,77.2372 64.0243,72.9038 63.5,68.5C 63.6099,57.2587 67.6099,47.9254 75.5,40.5 Z"/></g>
<g><path style="opacity:1" fill="#9794f2" d="M 89.5,42.5 C 89.5,47.1667 89.5,51.8333 89.5,56.5C 85.6689,59.5065 84.0022,63.5065 84.5,68.5C 84.1417,73.1054 85.475,77.1054 88.5,80.5C 86.7354,81.4614 84.7354,81.7947 82.5,81.5C 81.4986,78.8284 80.4986,76.1618 79.5,73.5C 80.8221,73.67 81.9887,73.3366 83,72.5C 84.8406,66.5062 82.6739,64.1729 76.5,65.5C 75.7093,63.6907 75.7093,61.6907 76.5,59.5C 82.6739,60.8271 84.8406,58.4938 83,52.5C 81.9887,51.6634 80.8221,51.33 79.5,51.5C 82.2109,47.7881 85.5442,44.7881 89.5,42.5 Z"/></g>
<g><path style="opacity:1" fill="#fbfdfe" d="M 12.5,51.5 C 19.1584,50.3445 21.1584,52.8445 18.5,59C 11.7496,60.4689 9.74962,57.9689 12.5,51.5 Z"/></g>
<g><path style="opacity:1" fill="#fdfdfe" d="M 79.5,51.5 C 80.8221,51.33 81.9887,51.6634 83,52.5C 84.8406,58.4938 82.6739,60.8271 76.5,59.5C 75.4634,57.2625 75.2967,54.9291 76,52.5C 77.0113,51.6634 78.1779,51.33 79.5,51.5 Z"/></g>
<g><path style="opacity:1" fill="#37abeb" d="M 75.5,27.5 C 75.0882,29.9726 76.0882,31.3059 78.5,31.5C 62.0952,44.4295 56.4285,61.0961 61.5,81.5C 59.1667,81.5 56.8333,81.5 54.5,81.5C 49.3591,58.5633 56.3591,40.5633 75.5,27.5 Z"/></g>
<g><path style="opacity:1" fill="#8399f0" d="M 89.5,35.5 C 89.5,37.8333 89.5,40.1667 89.5,42.5C 85.5442,44.7881 82.2109,47.7881 79.5,51.5C 78.1779,51.33 77.0113,51.6634 76,52.5C 75.2967,54.9291 75.4634,57.2625 76.5,59.5C 75.7093,61.6907 75.7093,63.6907 76.5,65.5C 75.4634,67.7375 75.2967,70.0709 76,72.5C 77.0113,73.3366 78.1779,73.67 79.5,73.5C 80.4986,76.1618 81.4986,78.8284 82.5,81.5C 79.1667,81.5 75.8333,81.5 72.5,81.5C 68.3811,68.3665 70.3811,56.3665 78.5,45.5C 80.1439,45.7135 81.6439,45.3802 83,44.5C 83.4955,42.5273 83.6621,40.5273 83.5,38.5C 84.911,36.461 86.911,35.461 89.5,35.5 Z"/></g>
<g><path style="opacity:1" fill="#a88ef3" d="M 89.5,56.5 C 89.8257,64.6841 89.4924,72.6841 88.5,80.5C 85.475,77.1054 84.1417,73.1054 84.5,68.5C 84.0022,63.5065 85.6689,59.5065 89.5,56.5 Z"/></g>
<g><path style="opacity:1" fill="#fbfdfe" d="M 12.5,65.5 C 19.1584,64.3445 21.1584,66.8445 18.5,73C 11.7496,74.4689 9.74962,71.9689 12.5,65.5 Z"/></g>
<g><path style="opacity:1" fill="#fdfdfe" d="M 76.5,65.5 C 82.6739,64.1729 84.8406,66.5062 83,72.5C 81.9887,73.3366 80.8221,73.67 79.5,73.5C 78.1779,73.67 77.0113,73.3366 76,72.5C 75.2967,70.0709 75.4634,67.7375 76.5,65.5 Z"/></g>
</svg>
